<svg width="967" height="150" viewBox="0 0 967 150" fill="none" xmlns="http://www.w3.org/2000/svg">
<path d="M119.729 133.414C119.773 133.47 119.852 133.479 119.907 133.434C128.711 126.23 135.771 117.065 140.541 106.644C145.33 96.1852 147.682 84.7442 147.416 73.2112C147.15 61.6782 144.273 50.364 139.008 40.1488C133.763 29.9718 126.288 21.1588 117.162 14.39C117.106 14.348 117.026 14.3607 116.985 14.4184L114.534 17.8506C114.492 17.9083 114.505 17.9891 114.562 18.0311C123.137 24.3932 130.161 32.6758 135.091 42.2398C140.04 51.8422 142.745 62.4774 142.994 73.3184C143.245 84.1596 141.033 94.9142 136.532 104.746C132.049 114.538 125.414 123.152 117.142 129.923C117.087 129.968 117.078 130.049 117.122 130.105L119.729 133.414Z" fill="white"/>
<path d="M111.149 10.5222C111.185 10.4608 111.164 10.3816 111.104 10.3455C102.015 4.9081 91.8847 1.51806 81.3959 0.404799C70.8648 -0.71294 60.2197 0.490659 50.1852 3.93368C40.1505 7.37669 30.9619 12.9783 23.2445 20.3573C15.5579 27.7069 9.51049 36.6479 5.51023 46.5763C5.48363 46.6423 5.51481 46.7177 5.57974 46.7447L9.43992 48.3453C9.50499 48.3723 9.5789 48.3405 9.60564 48.2745C13.3659 38.9447 19.0494 30.5427 26.2728 23.6359C33.5273 16.6996 42.1647 11.4341 51.5971 8.19765C61.0297 4.96121 71.0361 3.82984 80.9351 4.8805C90.7923 5.92669 100.313 9.11197 108.854 14.2208C108.915 14.2569 108.993 14.2366 109.028 14.1752L111.149 10.5222Z" fill="white"/>
<path d="M2.59223 55.812C2.52447 55.7936 2.45496 55.8348 2.43709 55.9036C0.773792 62.321 -0.0450887 68.9344 0.00191401 75.5702C0.00242512 75.6416 0.0598068 75.6988 0.129928 75.6982L4.29895 75.6586C4.36906 75.658 4.42532 75.5996 4.42482 75.5284C4.38134 69.2958 5.15045 63.0846 6.71199 57.057C6.72986 56.988 6.68951 56.9174 6.62173 56.899L2.59223 55.812Z" fill="white"/>
<path d="M0.78106 84.9889C0.711608 84.9985 0.662875 85.0635 0.672311 85.1341C2.01278 95.1641 5.33533 104.814 10.4403 113.502C15.5667 122.227 22.384 129.8 30.4772 135.76C38.5705 141.72 47.7711 145.944 57.52 148.174C67.2276 150.395 77.2769 150.592 87.0625 148.756C87.1313 148.743 87.1769 148.676 87.1641 148.606L86.4024 144.436C86.3896 144.366 86.3232 144.319 86.2542 144.332C77.0583 146.057 67.6145 145.87 58.4919 143.784C49.3281 141.687 40.6794 137.717 33.0717 132.114C25.464 126.512 19.0558 119.393 14.2368 111.192C9.43966 103.027 6.31684 93.9593 5.0561 84.5339C5.04665 84.4631 4.98274 84.4135 4.91323 84.4231L0.78106 84.9889Z" fill="white"/>
<path d="M94.4648 146.825C94.4844 146.894 94.5552 146.933 94.6224 146.913C101.057 144.974 107.202 142.151 112.887 138.521C112.947 138.483 112.964 138.404 112.927 138.343L110.706 134.755C110.668 134.694 110.59 134.676 110.531 134.714C105.191 138.123 99.4192 140.774 93.3753 142.596C93.3081 142.616 93.2695 142.688 93.2894 142.756L94.4648 146.825Z" fill="white"/>
<path d="M126.663 112.329C106.387 142.066 66.247 149.454 37.009 128.832C7.77081 108.209 0.505938 67.3853 20.7826 37.6485C41.0592 7.91178 81.1988 0.523128 110.437 21.1456C139.675 41.7679 146.94 82.5921 126.663 112.329ZM30.3712 44.4117C13.7671 68.7625 19.7161 102.192 43.6586 119.08C67.601 135.967 100.471 129.916 117.075 105.566C133.679 81.2149 127.73 47.7849 103.787 30.8978C79.8449 14.0104 46.9753 20.0608 30.3712 44.4117Z" fill="white"/>
<path d="M210 27.4194H222.683V122.581H210V27.4194ZM259.982 27.4194H276.628L328.152 105.645H328.416V27.4194H341.099V122.581H324.981L272.929 44.3548H272.665V122.581H259.982V27.4194ZM397.892 39.5161H367.771V27.4194H440.696V39.5161H410.575V122.581H397.892V39.5161ZM478.377 27.4194V85.7527C478.377 88.7097 478.774 91.8011 479.566 95.0269C480.359 98.1631 481.68 101.075 483.53 103.763C485.379 106.452 487.801 108.647 490.796 110.349C493.79 112.052 497.489 112.903 501.893 112.903C506.297 112.903 509.996 112.052 512.99 110.349C515.985 108.647 518.407 106.452 520.257 103.763C522.106 101.075 523.427 98.1631 524.22 95.0269C525.013 91.8011 525.409 88.7097 525.409 85.7527V27.4194H538.092V87.7688C538.092 93.3244 537.167 98.3871 535.317 102.957C533.468 107.437 530.914 111.335 527.655 114.651C524.396 117.966 520.565 120.52 516.161 122.312C511.757 124.104 507.001 125 501.893 125C496.785 125 492.029 124.104 487.625 122.312C483.221 120.52 479.39 117.966 476.131 114.651C472.873 111.335 470.318 107.437 468.469 102.957C466.619 98.3871 465.695 93.3244 465.695 87.7688V27.4194H478.377ZM573.641 27.4194H586.323V122.581H573.641V27.4194ZM643.175 39.5161H613.054V27.4194H685.98V39.5161H655.858V122.581H643.175V39.5161ZM712.695 27.4194H725.378V122.581H712.695V27.4194ZM805.61 125C798.476 125 791.915 123.746 785.926 121.237C779.936 118.638 774.784 115.099 770.469 110.618C766.241 106.138 762.894 100.851 760.428 94.7581C758.05 88.6649 756.861 82.0789 756.861 75C756.861 67.9211 758.05 61.3351 760.428 55.2419C762.894 49.1487 766.241 43.862 770.469 39.3817C774.784 34.9014 779.936 31.4068 785.926 28.8979C791.915 26.2993 798.476 25 805.61 25C812.744 25 819.306 26.2993 825.295 28.8979C831.284 31.4068 836.392 34.9014 840.62 39.3817C844.935 43.862 848.282 49.1487 850.66 55.2419C853.126 61.3351 854.359 67.9211 854.359 75C854.359 82.0789 853.126 88.6649 850.66 94.7581C848.282 100.851 844.935 106.138 840.62 110.618C836.392 115.099 831.284 118.638 825.295 121.237C819.306 123.746 812.744 125 805.61 125ZM805.61 112.903C810.983 112.903 815.827 111.918 820.142 109.946C824.458 107.885 828.157 105.152 831.24 101.747C834.322 98.3423 836.7 94.3548 838.374 89.7849C840.047 85.1254 840.884 80.1971 840.884 75C840.884 69.8029 840.047 64.9194 838.374 60.3495C836.7 55.69 834.322 51.6577 831.24 48.2527C828.157 44.8477 824.458 42.1595 820.142 40.1882C815.827 38.1272 810.983 37.0968 805.61 37.0968C800.238 37.0968 795.394 38.1272 791.078 40.1882C786.762 42.1595 783.063 44.8477 779.981 48.2527C776.898 51.6577 774.52 55.69 772.847 60.3495C771.173 64.9194 770.336 69.8029 770.336 75C770.336 80.1971 771.173 85.1254 772.847 89.7849C774.52 94.3548 776.898 98.3423 779.981 101.747C783.063 105.152 786.762 107.885 791.078 109.946C795.394 111.918 800.238 112.903 805.61 112.903ZM885.806 27.4194H902.452L953.975 105.645H954.239V27.4194H966.922V122.581H950.804L898.753 44.3548H898.488V122.581H885.806V27.4194Z" fill="white"/>
</svg>
